<svg width="61" height="28" viewBox="0 0 61 28" fill="none" xmlns="http://www.w3.org/2000/svg">
<path d="M6.10429 21.7257C7.05168 21.7257 7.88976 21.5526 8.61852 21.2064C9.34729 20.842 9.90297 20.2955 10.2856 19.5667V21.3977H14.1116V6.4763H10.0123V15.1941C10.0123 16.0504 9.75722 16.7428 9.24708 17.2711C8.73695 17.7812 8.08106 18.0363 7.27942 18.0363C6.47778 18.0363 5.82189 17.7812 5.31176 17.2711C4.80163 16.7428 4.54656 16.0504 4.54656 15.1941V6.4763H0.447266V15.5221C0.447266 17.3804 0.930071 18.8835 1.89568 20.0313C2.87951 21.1609 4.28238 21.7257 6.10429 21.7257Z" fill="white"/>
<path d="M17.1077 5.1372H21.207V1.0379H17.1077V5.1372ZM17.1077 21.3977H21.207V6.4763H17.1077V21.3977Z" fill="white"/>
<path d="M26.0104 21.3977H30.1097V10.029H33.3072V6.4763H30.1097V6.25767C30.1097 4.92768 30.884 4.26268 32.4326 4.26268C32.6877 4.26268 32.9883 4.29001 33.3345 4.34467V0.846604C32.9154 0.755509 32.4326 0.709961 31.8861 0.709961C30.0277 0.709961 28.5793 1.19277 27.5408 2.15838C26.5205 3.12399 26.0104 4.49042 26.0104 6.25767V6.4763H23.4962V10.029H26.0104V21.3977Z" fill="white"/>
<path d="M35.4157 21.3977H39.515V13.3631C39.515 12.2517 39.8247 11.3955 40.4442 10.7942C41.0636 10.1748 41.8744 9.86505 42.8764 9.86505H44.1609V6.31233H43.2864C42.3754 6.31233 41.5647 6.48541 40.8541 6.83157C40.1618 7.15951 39.6243 7.78807 39.2417 8.71725V6.4763H35.4157V21.3977Z" fill="white"/>
<path d="M48.2805 27.4647C51.0133 27.4647 52.9901 25.9069 54.2108 22.7915L60.6057 6.4763H56.2058L52.6804 16.0686L49.155 6.4763H44.7551L50.6307 21.3977L50.3574 22.0263C50.1388 22.5182 49.8564 22.9555 49.5103 23.3381C49.1641 23.7207 48.5902 23.912 47.7885 23.912C47.1327 23.912 46.5132 23.8209 45.9302 23.6387V27.0001C46.2399 27.1641 46.5952 27.2825 46.996 27.3554C47.4151 27.4282 47.8432 27.4647 48.2805 27.4647Z" fill="white"/>
</svg>
